<?xml version="1.0" encoding="utf-8"?>
<!-- Svg Vector Icons : http://www.onlinewebfonts.com/icon -->
<!DOCTYPE svg PUBLIC "-//W3C//DTD SVG 1.1//EN" "http://www.w3.org/Graphics/SVG/1.1/DTD/svg11.dtd">
<svg version="1.1" xmlns="http://www.w3.org/2000/svg" xmlns:xlink="http://www.w3.org/1999/xlink" x="0px" y="0px" fill="#5474fd" viewBox="0 0 1000 1000" enable-background="new 0 0 1000 1000" xml:space="preserve">
<metadata> Svg Vector Icons : http://www.onlinewebfonts.com/icon </metadata>
<g><path d="M957.1,495.3c-22-22-48.7-33-80.1-33H745c-15.7,0-29-5.5-40.1-16.5c-11-11-16.4-24.4-16.4-40.1v-18.7c0-41.7,14.7-77.2,44.1-106.7c29.5-29.4,65-44.2,106.6-44.2h37.7c10.2,0,19.1-3.7,26.5-11.1c7.5-7.5,11.1-16.3,11.1-26.5v-75.3c0-10.2-3.7-19.1-11.1-26.5c-7.5-7.5-16.3-11.1-26.5-11.1h-37.7c-40.8,0-79.8,7.9-116.9,23.8c-37.1,15.9-69.2,37.4-96.4,64.4c-27.1,27.1-48.5,59.2-64.4,96.4s-23.9,76.1-23.9,116.9v414.6c0,31.4,11,58.1,33,80.1c22,22,48.7,33,80.1,33h226.1c31.4,0,58.1-10.9,80.1-33c22-22.1,33-48.7,33-80.1V575.3C990,544,979.1,517.3,957.1,495.3 M429.3,495.3c-22-22-48.7-33-80.1-33h-132c-15.7,0-29-5.5-40.1-16.5s-16.5-24.4-16.5-40.1v-18.7c0-41.7,14.8-77.2,44.2-106.7c29.5-29.4,65-44.2,106.7-44.2h37.7c10.2,0,19-3.7,26.5-11.1c7.5-7.5,11.2-16.3,11.2-26.5v-75.3c0-10.2-3.8-19.1-11.2-26.5c-7.4-7.5-16.2-11.1-26.4-11.1h-37.7c-40.9,0-79.8,7.9-116.9,23.8c-37.1,15.9-69.2,37.4-96.4,64.4c-27.1,27.1-48.6,59.2-64.4,96.4C17.9,307.1,10,346.1,10,386.9v414.6c0,31.4,10.9,58.1,33,80.1c22.1,22,48.7,33,80.1,33h226.2c31.4,0,58.1-10.9,80.1-33c22-22,33-48.7,33-80.1V575.3C462.3,544,451.4,517.3,429.3,495.3"/></g>
</svg>